<?xml version="1.0" encoding="UTF-8"?>
<svg id="Capa_1" data-name="Capa 1" xmlns="http://www.w3.org/2000/svg" viewBox="0 0 250 147.78">
  <defs>
    <style>
      .cls-1 {
        fill: #dcd7a6;
        fill-rule: evenodd;
      }
    </style>
  </defs>
  <path class="cls-1" d="M26.47,41.47c.26.37.46.75.73,1.03.65.64,1.24,1.35,1.77,2.11.27.39.62.59,1.02.68,1.86.41,3.71.78,5.62.53.32-.04.64-.12.97-.17.12-.02.24,0,.37-.01.02.59-.2.88-.68.98-.27.05-.52.21-.79.27-.44.1-.88.17-1.36.25.36.83.8,1.58,1.32,2.34-.12.28-.24.56-.35.8-.28.04-.35-.17-.45-.33-.51-.79-1.02-1.57-1.51-2.37-.23-.37-.51-.56-.92-.65-.86-.18-1.72-.44-2.57-.69-.54-.16-1.04-.43-1.46-.88-.6-.65-1.2-1.31-1.79-1.98-.18-.2-.32-.44-.47-.67-.18-.27-.36-.55-.64-.77-1.57.53-3.09,1.17-4.36,2.41-.74.73-1.55,1.38-2.24,2.17-.78.89-1.67,1.65-2.32,2.69-.09.14-.21.27-.26.42-.22.68-.64,1.23-.96,1.84-.38.74-.75,1.49-1.07,2.27-.21.52-.48.91-.96,1.13-.53.25-1.03.61-1.6.75-.15.03-.29.11-.41.21-.92.75-1.94,1.31-2.85,2.08-.88.76-1.77,1.52-2.65,2.28-.1.09-.2.18-.28.28-.19.24-.31.51-.31.85,0,.55-.01,1.09-.03,1.64,0,.32.05.62.18.91.31.72.47,1.52.88,2.18.01.02.02.05.03.08.33,1.27.88,2.44,1.39,3.62.16.36.33.71.48,1.07.18.44.36.88.52,1.33.25.72.48,1.45.72,2.17.11.32.21.64.31.97.03.11.05.23.09.33.72,1.48,1.22,3.09,1.83,4.63.17.44.36.89.6,1.29.57.99.94,2.08,1.33,3.17.31.87.44,1.82.88,2.65.19.36.38.68.79.81.38-.21.77-.48,1.19-.65.51-.21.92-.56,1.3-.98.92-1.01,1.88-1.99,2.82-2.98.48-.51.95-1.02,1.41-1.56.24-.28.5-.45.84-.51,1.35-.24,2.62-.79,3.94-1.16.19-.05.38-.16.56-.25.87-.45,1.73-.92,2.61-1.34.59-.28,1.02-.71,1.28-1.38.48-1.25,1.13-2.36,1.98-3.33.16-.18.29-.4.4-.62.42-.82.83-1.64,1.24-2.46.28-.56.63-1.03,1.13-1.34.42-.26.81-.58,1.23-.84.25-.15.35-.36.43-.65.25-.9.45-1.82.57-2.76.02-.14.05-.27.07-.38.19-.14.32-.04.46.02.12.05.23.1.37.16.15.98-.38,1.82-.41,2.81.75-.18,1.4-.56,2.06-.85.68-.3,1.32-.71,1.98-1.07.26.14.25.38.21.72-.34.22-.7.47-1.08.69-.61.34-1.21.7-1.84.99-1.21.54-2.23,1.44-3.25,2.32-.15.13-.28.33-.38.52-.68,1.28-1.34,2.56-2,3.84-.03.07-.03.16-.05.29.33.08.64.16.95.23.74.14,1.49.27,2.24.41.2.04.39.03.59-.04,1.38-.44,2.75-.92,4.08-1.54.3-.14.59-.32.86-.53.47-.38.92-.8,1.38-1.2,1.02-.89,2.09-1.69,3.18-2.46.06-.04.14-.06.24-.1.13.32.07.62.06.93-.48.4-.94.8-1.42,1.16-1.19.87-2.28,1.89-3.29,3.01-.2.22-.42.4-.67.54-.6.36-1.2.72-1.79,1.1-.27.17-.54.28-.85.33-.65.1-1.29.23-1.94.35-.63.11-1.25.1-1.88.03-.58-.07-1.15-.16-1.73-.2-.81-.07-.66-.15-1.25.53-.39.45-.74.94-1.05,1.46-.27.45-.6.75-1.05.92-.91.34-1.81.7-2.72,1.01-1.33.44-2.65.9-4,1.24-.79.2-1.32.73-1.73,1.41-.48.82-1.05,1.54-1.67,2.21-.78.85-1.59,1.67-2.38,2.52-.26.27-.5.57-.72.88-.66.94-1.3,1.89-1.97,2.83-.26.36-.39.73-.34,1.18,0,.09.01.17.01.26-.02,2.29-.05,4.59-.07,6.89,0,.66-.03,1.32,0,1.98.06,1.09.07,2.18.06,3.27-.01.98-.13,1.94-.35,2.89-.46,2-.91,4-1.34,6-.08.39-.14.79-.13,1.19.03,1.92.1,3.85.14,5.77.05,2.56.28,5.1.5,7.64.03.31.03.63.06.94.05.76-.07,1.47-.31,2.18-.38,1.15-.71,2.33-.97,3.53-.13.6-.11,1.25-.12,1.88-.05,2.21.17,4.41.33,6.62.07.91.1,1.83.13,2.77-.47.2-.91.16-1.37.09-.04-.21-.09-.41-.1-.6-.11-2.09-.24-4.18-.31-6.28-.04-1.2.03-2.41.07-3.61.02-.4.1-.79.19-1.18.25-1.05.49-2.11.79-3.14.22-.73.22-1.46.16-2.21-.24-2.6-.42-5.2-.46-7.82-.03-2.01-.14-4.02-.23-6.02-.03-.7.05-1.35.23-2.03.42-1.56.75-3.15,1.16-4.72.28-1.08.4-2.16.37-3.3-.06-1.81,0-3.62,0-5.42,0-.95-.04-1.89-.07-2.84-.03-.69,0-1.37.1-2.06.09-.71.12-1.43.17-2.14.04-.63.05-1.26.13-1.89.06-.48.27-.92.55-1.3.2-.28.46-.51.58-.9-.26-.04-.39.17-.57.24-.18.06-.35.06-.48-.12-.13-.17-.3-.33-.37-.54-.64-1.83-1.36-3.44-2.21-5.04-.56-1.06-1.11-2.11-1.54-3.26-.3-.79-.66-1.55-1.01-2.31-.44-.94-.76-1.93-1.06-2.94-.15-.52-.28-1.04-.44-1.56-.1-.35-.23-.69-.35-1.04-.04-.11-.1-.21-.11-.32-.16-.91-.56-1.72-.87-2.56-.53-1.46-1.23-2.83-1.69-4.32-.05-.16-.11-.32-.19-.46-.67-1.16-1.05-2.4-1-3.81,0-.31-.04-.63-.03-.94,0-.32-.02-.65.07-.94.25-.84.2-1.7.24-2.56,0-.11,0-.23,0-.35-.06-1.09,0-2.17.19-3.25.08-.45.14-.91.17-1.36.04-.79.24-1.53.59-2.2.64-1.23,1.29-2.46,1.98-3.66.82-1.44,1.69-2.85,2.54-4.28,1.06-1.78,2-3.65,2.85-5.57.23-.53.55-.94,1.02-1.22.31-.18.61-.4.91-.61,1.26-.91,2.65-1.52,4.05-2.06.52-.2,1.04-.42,1.56-.63.14-.06.28-.12.43-.16.91-.24,1.79-.58,2.68-.89.67-.24,1.37-.38,2.06-.54.97-.23,1.88-.62,2.81-.98.47-.18.94-.38,1.38-.56.22-.47.38-.93.62-1.33.98-1.63,1.92-3.3,3.01-4.84.33-.47.72-.88,1.04-1.36.28-.43.51-.92.75-1.39.03-.06.03-.15.06-.34-.59.65-1.13,1.2-1.63,1.79-.76.88-1.5,1.77-2.26,2.65-.1.12-.22.24-.35.32-1.17.81-2.17,1.86-3.18,2.89-.37.37-.76.62-1.24.76-1.71.51-3.42.91-5.19,1.07-.75.07-1.49.29-2.23.45-.64.14-1.29.25-1.92.43-.7.21-1.41.4-2.04.85-.13.09-.27.15-.4.23-.65.38-1.31.73-1.94,1.14-1.03.67-2.07,1.3-3.21,1.69-.46.15-.89.4-1.34.58-.16.06-.34.08-.5.1-.5.05-.82-.2-1.13-.67-.49-.73-1-1.43-1.48-2.18-.69-1.07-1.29-2.19-1.84-3.35-.59-1.23-1.17-2.48-1.76-3.71-.13-.26-.16-.52-.11-.82.17-1.04.32-2.09.46-3.14.14-1.05.24-2.11.38-3.15.14-1.05.33-2.09.48-3.14.05-.34.07-.68.09-1.03.02-.51.18-.92.47-1.32,1.4-1.94,2.95-3.68,4.7-5.2.4-.35.78-.73,1.17-1.08.11-.1.25-.22.39-.23.62-.05,1.25-.09,1.88-.03.01.35-.18.52-.32.7-.89,1.17-1.79,2.33-2.68,3.5-.32.41-.62.83-.94,1.24-.45.58-.89,1.16-1.34,1.75-.13.17-.26.35-.39.53-.39.54-.64,1.15-.71,1.86-.05.45-.16.9-.25,1.34-.18.95-.37,1.9-.55,2.86-.2,1.04-.39,2.08-.74,3.06-.32.89-.16,1.74.24,2.55.45.92.94,1.82,1.44,2.72.65,1.16,1.44,2.21,2.1,3.36.21.38.53.68.84.98.22.21.48.24.78.1,1.48-.71,3-1.33,4.45-2.12,1.29-.7,2.64-1.09,4.04-1.32,1.42-.24,2.84-.42,4.26-.77.16-.34.08-.68-.01-1-.21-.77-.43-1.53-.8-2.22-.06-.12-.12-.24-.2-.39.29-.48.57-.94.97-1.34.51.42.53,1.18.93,1.7.11-.11.21-.19.29-.28.77-.91,1.52-1.84,2.3-2.72.23-.26.38-.52.42-.88.06-.51.11-1.02.15-1.54.02-.26.03-.53-.04-.77-.13-.49.04-.94-.03-1.55.45.31.76.52,1.08.74.06.78.06,1.51-.02,2.26-.07.57-.1,1.15-.07,1.71.02.39-.08.67-.31.92-.61.68-1.22,1.37-1.85,2.03-.4.43-.83.82-1.29,1.26.13.5.28,1.04.44,1.64.41-.07.83-.13,1.25-.22.37-.08.75-.14,1.1-.29.34-.15.68-.38.97-.64.51-.46.99-.97,1.47-1.48.39-.41.78-.8,1.33-.92.14-.03.29-.12.4-.23.55-.55,1.1-1.09,1.61-1.68.58-.67,1.1-1.42,1.68-2.09,1.1-1.3,2.06-2.74,3.01-4.19.66-1.01,1.23-2.09,1.84-3.15.07-.11.11-.24.17-.38-.32-.41-.72-.57-1.12-.74-1.36-.56-2.51-1.44-3.4-2.75-.38-.56-.75-1.16-1.33-1.46.08-.76.15-1.46.22-2.15.55-.19.71-.2,1.46-.08.03.23.05.48.08.73.03.26.09.51.11.77.04.46.23.8.55,1.08,1.16,1.02,2.37,1.94,3.66,2.74.15.1.32.17.49.22.37.11.72.03.96-.31.62-.87,1.36-1.6,1.93-2.53.55-.89,1.24-1.66,1.88-2.47.34-.43.75-.64,1.27-.61.52.03,1.05-.04,1.68,0-.14.18-.19.26-.26.32-.22.19-.44.39-.67.55-1.43.97-2.32,2.49-3.18,4.05-.65,1.19-1.18,2.47-1.98,3.56-.27.37-.49.8-.73,1.2-.05.09-.07.19-.14.38,1-.23,1.93-.44,2.87-.66.87-1.21,1.38-2.65,1.91-4.1.74-.08,1.46-.2,2.18-.22,1.36-.03,2.71-.16,4.06-.34.37-.05.75-.11,1.12-.21.57-.16,1.1-.41,1.55-.85.86-.84,1.72-1.68,2.58-2.52.27-.27.5-.56.58-.98.07-.36.29-.51.61-.5.22.01.44.01.73.02-.16.94-.4,1.75-.97,2.4-1.12,1.28-2.28,2.49-3.57,3.56-.92.76-1.91,1.12-3.01,1.17-.53.02-1.06,0-1.59,0-.22,0-.45,0-.67.03-.84.15-1.68.32-2.58.49-.26.46-.55.96-.84,1.46-.28.47-.58.94-.89,1.45-.49.12-1.01.25-1.52.39-.27.07-.54.15-.8.24-.84.29-1.67.65-2.53.86-.86.21-1.27.88-1.56,1.69-.18.5-.38.99-.62,1.46-.8,1.6-1.67,3.14-2.66,4.59-.2.29-.36.61-.46.96.26.14.47,0,.68-.06.56-.14,1.13-.35,1.71-.24,1.05.2,2.11.07,3.16.18.33.03.63.09.94.32-.21.41-.55.47-.85.53-.59.12-1.19.19-1.79.28-.52.08-1.05.14-1.57.25-.42.09-.82.25-1.24.35-.56.14-1.13.29-1.7.39-.51.09-.89.36-1.18.82-.26.42-.56.82-.79,1.26-.21.39-.49.63-.85.79-1.57.68-3.15,1.37-4.71,2.07-1.66.75-3.36,1.36-4.96,2.28-.47.27-.97.48-1.46.68-1.06.44-2.13.89-3.13,1.48-.51.3-1.02.61-1.51.94-.12.08-.22.24-.3.38-.38.64-.76,1.29-1.14,1.93-.35.59-.72,1.18-1.06,1.78-.24.43-.44.9-.68,1.34-.25.46-.52.91-.8,1.36-1.03,1.69-2.07,3.38-3.11,5.08-.09.14-.18.29-.22.45-.21.97-.58,1.9-.64,2.91-.06.97-.13,1.94-.2,3,.18-.09.29-.13.39-.19.48-.31.95-.65,1.43-.95.42-.26.83-.55,1.32-.62.07,0,.15-.05.21-.09.96-.57,2.02-.87,3.04-1.27.21-.08.43-.16.63-.28.13-.07.27-.18.34-.32.28-.61.55-1.22.81-1.84.23-.54.45-1.09.69-1.63.26-.59.61-1.12,1-1.61.78-.98,1.62-1.88,2.57-2.65.37-.3.72-.63,1.07-.95.85-.77,1.77-1.4,2.72-2,1.68-1.06,3.51-1.71,5.29-2.48.92-.39,1.84-.78,2.77-1.13.64-.24,1.3-.44,1.99-.44.33,0,.64.04.96.18.28.13.58.16.88.24,1.67.44,3.33.87,4.94,1.58.09.04.19.07.29.11.29.14.56.12.86-.05.91-.49,1.83-.96,2.77-1.36.77-.33,1.58-.56,2.37-.83.13.54.02.97-.33,1.21-.28.2-.57.36-.87.52-.55.29-1.1.56-1.65.85-.34.18-.66.4-.98.74.09.14.16.3.27.38.19.14.41.22.61.34.43.24.86.48,1.28.74.12.08.22.21.39.38-.4.21-.74.39-1.08.56-.17.09-.34.07-.51-.02-1.51-.77-3.13-1.29-4.55-2.29-1.09-.42-2.09-1.15-3.26-1.31-.82-.12-1.65-.19-2.48-.27-.15-.02-.31,0-.45.05-.86.31-1.74.55-2.56,1.02-.54.31-1.11.54-1.66.82-.13.07-.26.15-.45.25Z"/>
  <path class="cls-1" d="M193.06,37.25c.13-.53.23-.88.3-1.24.17-.88.14-1.77.12-2.66,0-.17-.04-.34-.1-.5-.22-.61-.71-.84-1.24-.56-.66.35-1.15.92-1.44,1.69-.16.42-.28.86-.42,1.29-.04.13-.1.26-.16.44-.24,0-.49.03-.74.03-1.84-.03-3.67-.07-5.51-.11-.55-.01-1.11-.07-1.66-.06-1.66.02-3.31.26-4.95.51-1.12.17-2.22.42-3.32.62-.12-.15-.05-.23.04-.3,1.64-1.23,3.3-2.41,5.04-3.45.75-.45,1.53-.86,2.3-1.28.77-.42,1.54-.85,2.31-1.25.64-.33,1.29-.63,1.94-.94.28-.13.56-.25.83-.42,1.36-.83,2.8-1.41,4.26-1.94,1.05-.39,2.1-.8,3.15-1.19,1.34-.5,2.71-.85,4.09-1.16,1.36-.3,2.7-.67,4.06-.98.91-.21,1.83-.36,2.75-.54.74-.15,1.48-.33,2.22-.48,2.7-.55,5.39-1.1,8.1-1.62,1.01-.19,2.04-.29,3.07-.45,1.12-.17,2.24-.37,3.36-.54.85-.12,1.7-.23,2.55-.3,2.58-.21,5.17-.38,7.76-.62,1.9-.18,3.8-.47,5.7-.7,1.03-.12,2.05-.23,3.08-.3,1.96-.13,3.92-.23,5.88-.34.3-.02.6-.02.92-.02.15.46.13.91.05,1.4-.42.15-.85.13-1.27.14-.88.01-1.76,0-2.64.04-1.26.07-2.52.1-3.76.29-3.02.46-6.07.59-9.1.8-1.08.08-2.16.11-3.24.23-2.3.25-4.6.55-6.91.8-1.4.16-2.78.48-4.17.77-1.21.26-2.43.44-3.65.68-.59.11-1.18.27-1.78.4-1.48.33-2.96.64-4.44.98-1.7.38-3.4.76-5.1,1.19-1,.26-1.98.65-2.99.91-1.32.35-2.66.62-3.98.96-1.59.42-3.16.94-4.68,1.64-1.65.77-3.3,1.56-4.94,2.34-.28.13-.56.27-.82.44-1.33.87-2.7,1.65-4.11,2.35-.2.1-.38.24-.55.46,1.08-.13,2.16-.24,3.24-.38,1.13-.14,2.26-.12,3.39-.09,1.11.03,2.21.04,3.34.06.28-.48.57-1,.88-1.51.5-.83,1.21-1.35,2-1.77.66-.35,1.22-.13,1.77.28.38.29.59.68.58,1.23,0,.45.03.9.04,1.31.18.1.25,0,.32-.08.33-.35.67-.69.99-1.06.76-.88,1.5-1.77,2.25-2.66.29-.34.65-.52,1.05-.63.91-.24,1.47.63,1.63,1.37.05.24.04.5.05.74.2.04.25-.11.33-.21.58-.76,1.17-1.5,1.72-2.29.63-.91,1.5-1.2,2.44-1.34.15-.02.3,0,.45-.02.97-.1,1.61.48,2.12,1.34.27.45.56.9.44,1.6.18-.12.3-.15.37-.24.43-.54.95-.93,1.51-1.28,1.08-.68,2.13-1.42,3.23-2.04,1.01-.57,2.07-1.04,3.13-1.5,1.6-.7,3.27-1.16,4.95-1.45,1.04-.17,2.11-.12,3.16-.17.29-.01.53.13.74.37.37.44.67.93.89,1.48.05.13.08.27.09.41.09.96,0,1.89-.3,2.79-.17.49-.41.9-.8,1.22-.45.37-.87.77-1.4.99-.36.15-.72.24-1.1.26-.98.03-1.96.05-2.93-.13-.09-.02-.19,0-.33,0-.01.46-.09.87-.31,1.24-.16.27-.36.47-.63.59-.43.18-.87.27-1.33.28-1.13.02-2.26.07-3.4.08-1.07,0-2.1.25-3.14.47-.49.1-.96.35-1.41.58-1.77.9-3.47,1.95-5.06,3.23-1.21.98-2.5,1.8-3.88,2.44-.34.16-.7.27-.98.54,0,.07,0,.11.02.13.01.02.05.03.07.03.37.05.75.14,1.12.15,1.04.05,2.06-.06,3.07-.33.49-.13.95-.37,1.39-.66.65-.44,1.35-.77,2.09-.95.98-.24,1.96-.53,2.95-.72,1.19-.23,2.35-.05,3.48.45.94.42,1.23,1.36,1.26,2.33,0,.27-.09.57-.22.8-.17.31-.41.58-.65.83-.28.3-.63.45-1.03.46-.98.04-1.96.06-2.94.16-.93.09-1.87.11-2.76.42-.69.24-1.35.6-2.03.91-.57.25-1.06.64-1.52,1.11-.07.08-.17.14-.22.24-.28.6-.57,1.19-.69,1.93.45-.03.82-.22,1.18-.39,1.21-.58,2.46-.53,3.71-.32.56.09.92.55,1.28,1,.05.06.06.15.08.24.17.99-.06,1.82-.81,2.41-.16.13-.35.23-.52.34-.22.14-.44.26-.71.43.08.14.13.27.21.36.36.45.46.98.48,1.58.04,1.24-.19,2.39-.64,3.5-.19.47-.35.95-.51,1.43-.19.6-.46,1.14-.84,1.61-.28.33-.55.67-.82,1.01-.06.07-.14.12-.35.29.11-.38.15-.6.24-.8.28-.58.46-1.2.64-1.83.19-.71.46-1.39.7-2.09.32-.97.58-1.95.53-3.01-.02-.49-.15-.89-.42-1.25-.28-.37-.56-.73-.85-1.11.08-.24.27-.26.42-.3.7-.21,1.25-.72,1.87-1.11.29-.18.42-.9.27-1.25-.04-.1-.11-.19-.19-.25-.19-.15-.41-.22-.64-.21-.38.01-.76.05-1.13.02-.94-.1-1.79.21-2.6.72-.48.3-.95.61-1.42.91-.18-.09-.14-.25-.15-.38-.11-1.49.23-2.84.91-4.09.16-.29.36-.56.6-.76.42-.35.87-.68,1.34-.95.97-.55,1.96-1.02,3.04-1.23,1.27-.25,2.54-.4,3.83-.39.33,0,.65-.02.98-.03.29,0,.53-.15.76-.33.42-.33.62-1.16.08-1.72-.45-.47-1.01-.66-1.6-.64-.68.03-1.35.12-2.02.25-1.47.3-2.88.76-4.23,1.52-1.23.69-2.58.91-3.94,1-1.26.09-2.45-.18-3.63-.64-.57-.22-1.14-.47-1.7-.71-.11-.05-.26-.05-.3-.29.16-.08.33-.17.51-.24,1.27-.47,2.55-.88,3.79-1.41.82-.35,1.59-.86,2.36-1.35,1.56-.99,3.1-2.01,4.57-3.17.84-.66,1.81-1,2.77-1.32,1.66-.54,3.36-.71,5.08-.68.68.01,1.36-.01,2.04-.06,1.19-.09,1.4-.37,1.32-1.71-.02-.25-.01-.51-.02-.8.22-.19.47-.09.71-.06.82.12,1.64.29,2.47.35.52.04,1.05-.12,1.57-.15.42-.02.78-.2,1.12-.45.35-.26.62-.59.78-1.02.13-.37.22-.76.33-1.14.24-.83-.25-2.07-1.28-2.39-.5-.15-1-.19-1.5-.06-1.08.28-2.15.54-3.22.9-1.11.37-2.21.75-3.29,1.24-.23.11-.47.21-.7.33-2.08,1.15-4.14,2.36-6.13,3.7-.6.41-1.24.76-1.86,1.13-.11.06-.23.09-.38.14-.13-.34.05-.58.16-.81.18-.4.25-.8.24-1.24,0-.31-.11-.56-.3-.76-.36-.39-.75-.64-1.27-.64-.71,0-1.32.21-1.86.77-.95.98-1.9,1.97-2.76,3.05-.42.52-.91.97-1.52,1.4.04-.32.05-.55.09-.76.11-.65.2-1.3.16-1.96-.02-.32-.06-.66-.36-.79-.28-.12-.54,0-.76.24-.34.38-.7.74-1.03,1.14-1.23,1.47-2.46,2.95-3.69,4.42-.24.29-.53.51-.97.82Z"/>
  <path class="cls-1" d="M243.52,21.03c-.07.06-.13.14-.21.19-1.26.77-2.54,1.51-3.79,2.31-1.16.75-2.29,1.54-3.43,2.34-.56.39-1.09.81-1.64,1.22-.23.17-.47.34-.69.52-.68.54-1.36,1.08-2.03,1.64-.42.36-.84.73-1.21,1.15-1.08,1.2-2.1,2.48-3.21,3.64-1.06,1.11-1.98,2.36-2.96,3.55-.84,1.03-1.61,2.13-2.36,3.24-.76,1.11-1.46,2.26-2.22,3.37-.67.97-1.37,1.9-2.06,2.86-.75,1.04-1.5,2.09-2.24,3.13-1.2,1.66-2.4,3.32-3.59,4.99-.68.96-1.41,1.86-2.16,2.76-.82.97-1.52,2.06-2.27,3.1-.06.08-.09.19-.18.38.16-.05.25-.06.33-.11.52-.3.99-.66,1.44-1.1.37-.37.8-.7,1.25-.96,1.32-.78,2.68-1.45,4.08-2.02.71-.29,1.45-.45,2.21-.49.35-.02.7.04,1.06-.13-.02-.15-.03-.29-.05-.42-.05-.37-.1-.74-.16-1.1-.13-.81.11-1.54.44-2.22.51-1.02,1.58-1.37,2.4-.82.09.06.19.12.24.2.46.71.98,1.36,1.19,2.27.28,1.24.35,2.49.39,3.75.03.89.04,1.77.15,2.69.05-.12.12-.23.16-.35.24-.82.53-1.6,1-2.29.29-.43.5-.93.74-1.39.37-.72.74-1.43,1.11-2.15.23-.45.43-.91.52-1.42.08-.45.24-.87.47-1.26.36-.62.71-1.25,1.05-1.89.24-.44.57-.69,1.02-.81.74-.18,1.44-.18,2.14.19.09.05.19.07.34.13-.01-.17,0-.31-.04-.44-.35-1.17-.72-2.32-1.06-3.49-.25-.87-.51-1.75-.68-2.64-.25-1.29.46-2.56,1.59-2.89.36-.1.75-.08,1.12-.11.15-.01.3,0,.45-.01.01,0,.03-.04.07-.1-.08-.3-.31-.48-.54-.64-.44-.3-.77-.74-1.13-1.13-.29-.31-.43-.7-.43-1.15,0-.09,0-.17,0-.26-.04-1.64.47-2.44,1.93-3.09.44-.19.92-.3,1.41-.26.25.02.49,0,.78-.02.02-1.46.76-2.52,1.41-3.6.54-.9,1.4-1.38,2.37-1.51,1.09-.15,2.19-.28,3.34-.2.05-.49.11-.96.15-1.44.05-.63.15-1.25.36-1.84.12-.34.27-.69.46-.98.44-.67.96-1.27,1.57-1.72.8-.59,1.64-1.11,2.47-1.65.31-.2.64-.32,1-.22.19.27.13.55.09.9-.18.13-.4.26-.6.43-.63.53-1.25,1.06-1.87,1.6-.42.37-.84.73-1.24,1.12-.61.59-.91,1.34-.93,2.26-.01.89-.08,1.77-.12,2.66,0,.08-.04.16-.06.23-.21.16-.4.02-.59-.04-.93-.28-1.88-.38-2.84-.33-.13,0-.25.02-.38.02-1.05.06-1.88.59-2.46,1.59-.28.48-.53.97-.79,1.46-.27.52-.3,1.08-.21,1.67.04.25.06.5.09.73-.25.28-.52.19-.75.13-.79-.2-1.56-.05-2.32.14-.53.13-.97.47-1.11,1.15-.14.68-.13,1.32.38,1.82.21.2.42.42.65.59.76.57,1.1,1.39,1.17,2.39.02.28,0,.56.01.9-.17-.03-.3-.02-.4-.07-.6-.29-1.22-.28-1.85-.32-.65-.03-.98.45-1.05,1.09-.06.57-.03,1.13.13,1.7.38,1.37.87,2.69,1.39,4,.2.51.33,1.02.32,1.57,0,.4,0,.81.03,1.21.05.74-.18,1.4-.41,2.04-.2.06-.25-.09-.31-.2-.2-.43-.36-.89-.6-1.29-.4-.66-.96-1.09-1.69-1.12-.4-.02-.69.14-.96.54-.6.91-.98,1.93-1.36,2.96-.27.74-.56,1.47-.93,2.15-.54.97-1.09,1.93-1.56,2.94-.74,1.6-1.32,3.28-1.46,5.11-.02.32-.07.62-.25.86-.08-.02-.15-.03-.16-.06-.27-.58-.56-1.16-.8-1.76-.39-.98-.54-2.02-.46-3.11.04-.57.07-1.15.1-1.72.05-1.04-.16-2.05-.31-3.07-.04-.26-.09-.51-.13-.76-.1-.64-.44-1.08-.9-1.41-.21-.15-.44-.16-.64-.01-.3.22-.55.48-.62.92-.08.49-.07.97-.02,1.46.07.75.29,1.45.53,2.15.05.15.07.31.11.53-.33.03-.6-.06-.86-.12-.9-.2-1.79-.15-2.69.07-.87.22-1.69.54-2.49.97-.93.5-1.86,1-2.77,1.56-.44.27-.85.62-1.24.97-1.72,1.56-3.59,2.85-5.58,3.91-.04.02-.1,0-.15,0-.1-.17.04-.26.1-.36,1.12-1.62,2.25-3.24,3.38-4.85,1.76-2.51,3.53-5.01,5.3-7.51,1.06-1.49,2.14-2.97,3.21-4.45,1.17-1.62,2.33-3.24,3.51-4.84,1.17-1.58,2.16-3.31,3.37-4.85.79-1.01,1.58-2.01,2.36-3.02.25-.32.48-.67.71-1.01.91-1.38,1.9-2.67,3.08-3.77,1.11-1.03,2.23-2.04,3.34-3.06.57-.52,1.15-1.03,1.68-1.59.49-.51,1.05-.89,1.58-1.32.21-.17.43-.31.62-.48,1.15-1.01,2.45-1.68,3.78-2.29.35-.16.71-.31,1.03-.53.6-.43,1.25-.59,1.93-.63.35-.02.7-.02,1.05-.03.02.04.04.09.06.14Z"/>
  <path class="cls-1" d="M236.94,117.11c.72.42,1.21.9,1.73,1.35.46.39.91.79,1.37,1.2.84.74,1.6,1.57,2.29,2.5.7.94,1.46,1.81,2.19,2.71.18-.07.15-.23.15-.36,0-1.41-.09-2.81-.22-4.21-.19-2-.45-3.99-.46-6,0-1.21-.11-2.4-.37-3.59-.14-.63-.16-1.3-.24-1.93.2-.13.27,0,.35.11.6.89,1.07,1.87,1.55,2.85.61,1.25,1.13,2.56,1.56,3.91.14.45.39.87.62,1.27.29.48.48,1.01.63,1.56.17.63.35,1.26.54,1.88.65,2.13,1.05,4.31,1.1,6.57.09,4.51.19,9.01.28,13.52,0,.31,0,.62,0,.96-.51.15-.98.07-1.49.11-.04-.2-.09-.36-.1-.51-.02-.57-.03-1.15-.04-1.72-.03-1.15-.08-2.29-.19-3.44-.14-1.43-.18-2.86-.22-4.3-.04-1.44-.1-2.86-.39-4.27-.12-.58-.14-1.2-.18-1.8-.06-1.09-.23-2.16-.46-3.22-.24-1.11-.39-2.25-.64-3.36-.27-1.22-.61-2.43-.93-3.63-.05-.18-.16-.33-.33-.46.1,1.11.21,2.21.29,3.32.11,1.72.35,3.42.34,5.15,0,1.14.02,2.29.17,3.44.11.85.06,1.72-.04,2.58,0,.04-.06.08-.11.14-.22-.12-.27-.39-.4-.59-.26-.42-.44-.9-.81-1.24-.13-.12-.2-.33-.29-.49-.32-.55-.63-1.11-.96-1.65-.11-.19-.24-.37-.37-.54-.53-.69-1.05-1.39-1.59-2.07-.32-.4-.66-.78-1.01-1.15-.2-.21-.44-.39-.63-.56,0,.03.02.15.06.25.32.81.62,1.63.98,2.42.8,1.76,1.62,3.5,2.43,5.25.43.94.89,1.87,1.27,2.84.25.62.42,1.29.56,1.96.31,1.48.69,2.94,1.11,4.38.11.37.28.73.27,1.24-.14-.09-.23-.13-.28-.2-.76-1.07-1.5-2.16-2.27-3.22-.83-1.15-1.69-2.28-2.54-3.42-.18-.24-.38-.47-.53-.73-.72-1.23-1.65-2.24-2.6-3.23-.52-.54-1.04-1.08-1.57-1.61-.24-.24-.51-.45-.87-.76.02.22.01.33.05.4.19.37.39.73.6,1.09.26.46.53.91.78,1.37.36.65.75,1.29,1.05,1.99.59,1.38,1.41,2.58,2.13,3.86.07.12.16.24.19.37.24,1.14.85,2.07,1.29,3.1.05.12.1.25.15.37-.14.18-.25.06-.35,0-.65-.39-1.3-.76-1.93-1.17-.47-.3-.96-.54-1.48-.62-.76-.1-1.47-.4-2.18-.68-.81-.32-1.59-.71-2.39-1.07-.58-.26-1.17-.53-1.75-.79-.66-.29-1.19-.72-1.42-1.53-.18-.65-.47-1.25-.64-1.9.18-.09.22.03.27.11.42.65.84,1.29,1.25,1.94.2.32.44.5.79.58.71.17,1.41.42,2.12.63.63.19,1.25.42,1.9.54.94.17,1.86.47,2.76.81.07.03.14.02.27.04-.06-.38-.27-.63-.43-.9-.18-.31-.4-.59-.57-.91-.16-.29-.26-.62-.41-.92-.14-.3-.31-.59-.46-.89-.15-.3-.31-.59-.45-.89-.16-.33-.3-.66-.45-.99-.14-.3-.28-.61-.42-.91-.14-.3-.28-.61-.42-.92-.14-.31-.27-.61-.4-.93-.14-.34-.26-.68-.39-1.02-.12-.32-.23-.64-.35-.95-.12-.31-.24-.62-.35-.89.12-.2.21-.12.3-.08.11.06.22.14.34.18.72.23,1.33.68,1.93,1.15.62.49,1.24.98,1.87,1.46.04.03.08.06.12.1.92,1.06,1.94,2,2.75,3.18.45.65.9,1.3,1.53,1.99-.22-.97-.37-1.79-.71-2.56-.51-1.18-1.01-2.37-1.52-3.56-.64-1.46-1.29-2.92-1.92-4.38-.36-.82-.72-1.64-.97-2.52-.18-.66-.41-1.3-.61-1.94-.04-.13-.07-.26-.13-.52Z"/>
  <path class="cls-1" d="M5.83,108.9c-.3-.38-.62-.78-.93-1.2-.09-.12-.13-.3-.15-.47-.03-.31-.04-.63-.04-.95-.01-1.46-.01-2.93-.04-4.39-.01-.64.06-1.25.21-1.87.33-1.38.66-2.77,1.08-4.12.32-1.03.68-2.04,1.03-3.05.06-.18.17-.36.3-.47.52-.45,1.05-.88,1.59-1.31.18-.14.37-.3.67-.27.09.15.22.33.31.52.37.79.72,1.58,1.08,2.37.11.24.13.48.12.75-.09,1.52-.2,3.03-.25,4.55-.04,1.12-.01,2.24,0,3.36.03,1.58.07,3.16.13,4.73.02.53-.07,1-.29,1.48-.62,1.31-1.19,2.66-1.8,3.98-.4.86-.83,1.7-1.24,2.53-.29.16-.57.09-.84.11-.28.02-.55.02-.85.02-.73-1-1.57-1.87-2.17-2.98-.42-.78-.86-1.56-1.34-2.29-.28-.42-.35-.86-.36-1.36-.04-2.59-.07-5.17-.17-7.75-.06-1.6.04-3.14.49-4.66.21-.7.34-1.44.5-2.16.28-1.2.4-2.42.32-3.66-.03-.55-.1-1.08-.23-1.61-.14-.61-.24-1.23-.34-1.85-.11-.65-.21-1.3-.33-1.94-.19-1.07-.4-2.13-.6-3.2-.06-.34-.16-.67-.17-1.01-.08-2.38-.14-4.76-.22-7.21.26.1.29.29.34.46.21.74.41,1.47.61,2.21.18.69.46,1.33.78,1.95.1.19.19.41.23.63.23,1.24.41,2.48.66,3.71.3,1.52.45,3.06.54,4.6.05.89.21,1.76.37,2.63.15.84.26,1.7.35,2.55.02.21-.03.46-.1.67-.44,1.4-.91,2.79-1.33,4.2-.25.84-.47,1.7-.6,2.57-.15.96-.06,1.94.03,2.92.04.43.06.85.06,1.28,0,1-.08,2.01,0,3.01.06.78.22,1.58.64,2.26.41.66.84,1.29,1.23,1.96.41.71.93,1.27,1.51,1.85.37-.2.67-.48.84-.91.43-1.07.85-2.14,1.28-3.21.2-.49.42-.98.67-1.44.14-.26.21-.5.19-.8-.06-1.35-.03-2.7.05-4.04.05-.83.06-1.66.05-2.5-.01-1.18.1-2.35.2-3.52.05-.53.02-1.03-.13-1.52-.15-.51-.33-1.01-.5-1.55-.58.25-.99.67-1.41,1.06-.11.1-.17.28-.22.44-.5,1.5-1,3-1.48,4.51-.11.34-.15.73-.17,1.1-.06,1.17-.07,2.35-.15,3.52-.05.78-.05,1.55.08,2.31.02.1.05.2.08.31.35-.17.53-.34.82-.73.15-.21.23-.44.24-.71.04-.66.08-1.32.14-1.97.11-1.26.23-2.51.33-3.77.05-.61.33-1.06.66-1.46.21.01.24.17.25.3.02.37.04.74.04,1.12,0,1.41-.02,2.81-.03,4.22,0,.6.01,1.21,0,1.81,0,.19-.05.4-.13.56-.21.39-.45.76-.69,1.13-.16.25-.37.48-.5.75-.27.59-.67.9-1.29.91Z"/>
  <path class="cls-1" d="M240.23,78.71c.34-.05.54.11.7.28.44.48.98.7,1.54.86,1.04.3,1.93.96,2.87,1.51.33.2.53.51.52.97-.01.46.06.91.12,1.36.07.59.04,1.2,0,1.8-.16,2.4-.35,4.8-.31,7.21,0,.06-.01.12,0,.17.15,1.1-.06,2.17-.22,3.24-.09.63-.07,1.26,0,1.88.11.94.25,1.87.34,2.81.04.37.02.75-.02,1.11-.12,1.11-.25,2.22-.39,3.32-.04.31-.1.61-.29.87-.17.21-.14.49.05.69.24.25.48.51.75.72.33.26.69.47,1.04.72.1.63.11,1.24.04,1.85-.26.09-.44-.05-.6-.17-.54-.42-1.09-.83-1.6-1.28-.47-.42-.95-.84-1.51-1.18-.34.67-.6,1.34-.75,2.07-.3,1.49-.45,2.99-.38,4.52.02.37-.01.74-.05,1.11-.11.97-.17,1.94-.43,2.88-.06.23-.05.49-.07.71-.2.11-.29-.02-.37-.12-.53-.69-1.04-1.39-1.57-2.08-.37-.47-.76-.92-1.11-1.4-.32-.44-.62-.9-.92-1.36-.16-.25-.18-.52-.02-.8.1-.16.18-.35.26-.52.54-1.12.83-2.32.94-3.59.17-1.91.37-3.82.55-5.73.16-1.71.31-3.42.46-5.13.02-.28.03-.57.04-.86,0-.34-.02-.68.13-1.01.08-.2.07-.45.09-.68.25-2.89.31-5.78.24-8.68-.05-1.81-.12-3.61-.17-5.42-.02-.66-.01-1.32,0-1.98,0-.22.07-.45.11-.69ZM240.94,116.22c.05-.35.1-.52.09-.68,0-1.26.02-2.52.09-3.78.06-1.08.22-2.1.55-3.1.38-1.15.72-2.32.94-3.53.03-.15.1-.3.15-.45.51.1.91.46,1.39.45.14-1.01.28-2,.41-2.99.15-1.14-.13-2.21-.4-3.28-.4-.14-.75-.27-1.11-.4-.55-.19-1.13-.27-1.64-.61-.14-.09-.33-.08-.48-.11-.22.28-.17.58-.16.86.05,1.61-.17,3.2-.33,4.8-.13,1.31-.23,2.62-.35,3.93-.1,1.09-.2,2.17-.51,3.21-.23.76-.53,1.48-.8,2.22-.06.18-.11.36-.16.51.75.96,1.47,1.87,2.31,2.94ZM244.32,89.47c.16-1.06.33-2.09.4-3.15.06-.88.06-1.78.15-2.66.06-.65-.14-1.05-.64-1.29-.16-.08-.31-.18-.47-.26-.52-.28-1.04-.57-1.56-.84-.25-.12-.49-.31-.77-.23-.22.21-.16.49-.16.74-.02.95-.03,1.89-.03,2.84,0,.83.03,1.66.03,2.49,0,.38.11.66.41.85.15.1.29.23.43.34.66.53,1.41.85,2.22,1.17ZM241.45,89.44c-.04,2.22-.33,4.29-.14,6.38.94.36,1.87.72,2.84,1.09.06-.31.13-.61.17-.91.1-.76.16-1.53.28-2.29.09-.61.04-1.2-.05-1.79-.02-.11-.03-.26-.09-.32-.25-.23-.41-.56-.72-.75-.62-.37-1.22-.79-1.83-1.19-.1-.07-.22-.11-.46-.22Z"/>
  <path class="cls-1" d="M236.68,55c-.12.54-.31.97-.5,1.39-.06.14-.22.23-.35.31-.22.14-.45.26-.68.38-.85.45-1.6,1.07-2.35,1.71-.14.12-.26.27-.38.42-.59.82-1.16,1.66-1.77,2.46-.41.54-.86,1.04-1.21,1.64-.01.02-.03.04-.05.07-.69,1.04-.71,1.11-.84,2.42-.17,1.66-.09,3.32.05,4.98.06.81.32,1.49.64,2.17.25.53.45,1.09.66,1.64.24.66.47,1.33.71,1.99.03.09.12.16.25.33.06-.51.12-.89.15-1.28.11-1.34.26-2.68.53-3.99.09-.45.12-.91.18-1.36.18-1.25.51-2.45.92-3.63.28-.8.53-1.61.78-2.42.43-1.42,1.03-2.74,1.9-3.88.43-.56.84-1.14,1.27-1.71.08-.1.18-.19.27-.29.3.42.48.79.5,1.13.01.13-.01.29-.07.41-.06.15-.16.29-.26.42-.96,1.35-1.63,2.9-2.2,4.49-.46,1.3-.94,2.59-1.29,3.94-.16.63-.33,1.26-.38,1.93-.03.4-.13.79-.2,1.18-.3,1.63-.61,3.25-.91,4.88-.05.27-.04.56-.07.85.35.05.59-.14.83-.27.95-.52,1.87-1.11,2.73-1.81.49-.4.96-.84,1.44-1.25.49-.42.88-.94,1.26-1.48.14-.2.27-.42.43-.6.63-.7.96-1.59,1.22-2.54.46-1.7.59-3.42.42-5.19-.08-.83-.1-1.66-.16-2.49-.05-.83-.11-1.65-.18-2.54.11.07.2.11.26.18.16.19.29.39.45.58.45.55.65,1.18.65,1.95,0,1,.13,2,.18,3,.04.77.11,1.56.04,2.32-.16,1.84-.51,3.63-1.66,5.06-.64.81-1.25,1.65-1.9,2.44-1.03,1.24-2.23,2.21-3.62,2.88-.9.43-1.78.92-2.68,1.38-.25.13-.51.24-.78.38-.41-.5-.71-1.05-.93-1.67-.47-1.33-1.03-2.62-1.72-3.83-.12-.22-.23-.44-.37-.65-.35-.52-.5-1.11-.52-1.76-.03-.89-.07-1.78-.12-2.67-.03-.6-.07-1.2-.12-1.8-.1-1.23.1-2.38.58-3.5.5-1.14,1.11-2.18,1.82-3.15.44-.6.83-1.23,1.28-1.81.81-1.08,1.78-1.95,2.91-2.54.82-.43,1.67-.78,2.52-1.16.11-.05.24-.03.41-.05Z"/>
  <path class="cls-1" d="M181.55,25.53c-.77,1.19-1.48,2.3-2.2,3.4-.89,1.34-1.98,2.43-3.15,3.43-.07.06-.16.11-.35.25.09-.23.11-.34.16-.42.37-.58.73-1.17,1.13-1.72.91-1.27,1.7-2.63,2.43-4.04.38-.74.8-1.46,1.29-2.13.14.02.26.02.38.05.94.19,1.89.26,2.85.3.98.04,1.96.14,2.94.16.68,0,1.36-.07,2.03-.14.28-.03.53-.2.59-.57.06-.36,0-.69-.27-.93-.3-.27-.66-.42-1.03-.51-.89-.22-1.77-.4-2.69-.34-1.43.1-2.87.12-4.3.18-.07,0-.15-.02-.28-.03.06-.15.1-.28.17-.38.7-.96,1.49-1.79,2.4-2.47.68-.51,1.45-.8,2.22-1.05.77-.25,1.56-.45,2.33-.71,1.11-.37,2.24-.34,3.37-.24,1.53.13,3.05.4,4.55.75.37.09.72.27,1.08.39.34.11.68.19,1.02.31.89.31,1.77.63,2.66.96,1.03.38,2.08.41,3.13.16.83-.19,1.26-1.19.92-2.05-.11-.29-.27-.55-.41-.82-.19-.36-.47-.59-.82-.73-.43-.17-.86-.33-1.28-.51-.5-.21-.99-.43-1.48-.64-.19-.08-.37-.17-.57-.23-.78-.22-1.52-.58-2.28-.9-.64-.27-1.29-.47-1.94-.71-.69-.26-1.39-.52-2.08-.79-.67-.26-1.35-.45-2.07-.43-.45,0-.9,0-1.36-.01-.01,0-.03-.04-.06-.08.04-.05.07-.14.13-.16.75-.34,1.54-.52,2.34-.62.54-.07,1.04.05,1.55.27.56.25,1.13.47,1.71.66.92.29,1.85.56,2.71,1.06.2.12.42.2.64.27,1.48.47,2.9,1.14,4.34,1.73.91.38,1.57,1.15,2,2.12.48,1.09.18,2.59-.63,3.38-.35.34-.78.52-1.24.55-1.42.09-2.8-.09-4.17-.55-1.08-.36-2.2-.62-3.29-.94-.56-.16-1.11-.37-1.67-.5-1.5-.35-3.02-.65-4.56-.68-1.26-.02-2.51.2-3.7.7-.4.17-.8.35-1.2.52-.4.17-.75.42-1.14.81.37.13.67.13.96.12,1.27-.04,2.5.29,3.72.61.17.04.33.13.5.21,1.02.45,1.42,1.17,1.4,2.75,0,.39-.2.71-.51.9-.35.22-.73.38-1.14.39-1.03.02-2.06.06-3.09.09-1.19.04-2.36-.13-3.53-.32-.37-.06-.75-.07-1.15-.1Z"/>
  <path class="cls-1" d="M230.78,11.04c.41-.08.78-.15,1.15-.23,1.05-.23,2.11-.21,3.16-.23,1.01-.01,2.01.01,3.02.05.35.01.7.08,1.05.13.55.08,1.1.16,1.64.25.98.16,1.92.49,2.81.94,1.11.55,2.19,1.16,3.28,1.75.13.07.26.18.42.29.04.72.11,1.45,0,2.26-1.08-.63-2.13-1.17-3.03-2.02-.3-.28-.61-.5-.97-.65-.87-.38-1.72-.81-2.61-1.12-.52-.19-1.09-.2-1.63-.27-.37-.05-.75-.07-1.13-.13-1.76-.26-3.52-.12-5.28-.03-.4.02-.81.06-1.19.19-.4.13-.78.37-1.17.58-.22.12-.38.38-.67.38-.1-.29-.03-.57-.02-.85.02-.54.03-1.09.06-1.63.02-.4-.11-.73-.38-.99-.71-.69-1.47-1.29-2.32-1.73-.09-.05-.19-.09-.29-.11-.82-.12-1.63-.33-2.47-.32-1.18.02-2.37.02-3.55.03-1.01,0-2.01,0-3.02,0-1.57,0-3.11.27-4.66.5-.7.1-1.4.21-2.1.3-.65.08-1.3.02-2.01-.1.05-.15.08-.27.12-.39.16-.39.32-.78.49-1.16.12-.27.17-.55.11-.83-.04-.18-.13-.4-.26-.49-.44-.33-.9-.58-1.48-.5-.77.11-1.55.13-2.34.16-1.29.04-2.54.37-3.78.76-.46.14-.92.31-1.37.46-.14.04-.28.06-.51.11.1-.35.16-.61.24-.87.08-.27.15-.55.24-.81.11-.32.24-.63.34-.96.24-.74.05-1.43-.53-1.88-.31-.24-.64-.43-1-.67.1-.06.16-.13.22-.13.5-.02,1.01-.04,1.51-.05.26,0,.49.11.71.26.26.18.4.42.45.76.08.55.03,1.09-.05,1.63-.02.14-.06.28-.09.41.16.2.33.09.49.03,1.51-.49,3.06-.66,4.62-.55.65.05,1.3.16,1.95.24.66.08,1.15.56,1.66.96.1.08.16.3.16.45,0,.57-.01,1.14-.03,1.77.09,0,.23.04.36.02,2.47-.43,4.95-.68,7.44-.77.45-.02.9-.04,1.36-.07,1.21-.09,2.41.06,3.61.17.88.08,1.75.18,2.62.33.72.13,1.44.3,2.14.5.42.12.79.36,1.06.78.18.28.41.51.62.76.46.55.83,1.16.75,1.98,0,.08.02.16.05.37Z"/>
  <path class="cls-1" d="M239.97,55.09l-.02-.98c-.09-3.79.4-7.49,1.4-11.1.28-1.01.62-2.01,1.13-2.9.26-.45.54-.91.89-1.26.55-.54,1.17-.99,1.76-1.47.03-.02.09,0,.18.02-.27.69-.62,1.3-.96,1.93-.38.71-.8,1.39-1.14,2.12-.54,1.14-.9,2.36-1.09,3.65-.1.71-.24,1.41-.34,2.11-.33,2.38-.61,4.77-.59,7.19,0,.4-.01.79-.02,1.26.17-.05.3-.05.39-.12.56-.39,1.11-.78,1.66-1.19.12-.09.23-.22.31-.36.16-.29.31-.59.44-.9.47-1.14.93-2.29,1.4-3.43.16-.39.34-.77.48-1.16.31-.88.6-1.76.77-2.69.2-1.05.82-2.92,1.22-3.76.04.22.09.38.09.54.03,1.35.06,2.7.09,4.05,0,.35-.04.68-.17,1-.13.31-.26.62-.38.94-.2.52-.39,1.06-.59,1.58-.11.29-.23.57-.37.85-.17.35-.36.68-.54,1.01.11.17.2.06.26,0,.38-.37.75-.75,1.13-1.14.2-.21.37-.46.65-.65.04.16.08.26.09.37.02.52.02,1.03.04,1.55,0,.28-.06.5-.27.66-.4.3-.79.61-1.18.92-.39.31-.78.62-1.17.93-.06.05-.12.11-.18.15-1.37.9-2.74,1.8-4.12,2.7-.04.03-.09.04-.19.08-.57-.4-1.16-.8-1.65-1.4-.66-.79-1.23-1.67-1.82-2.52-.2-.28-.32-.65-.43-1-.7-2.28-1.02-4.61-.74-7.03.01-.08.02-.17.02-.26-.03-1.29.39-2.41.94-3.48.3-.57.6-1.13.93-1.67.61-1,1.42-1.77,2.24-2.54.68-.64,1.45-1.14,2.23-1.6.51-.31,1.09-.39,1.61-.61.14.19.02.25-.04.31-.75.72-1.53,1.39-2.35,2.01-.69.52-1.39,1.05-1.99,1.69-.8.87-1.54,1.82-1.91,3.05-.12.41-.26.81-.31,1.23-.1.79-.15,1.59-.22,2.39-.03.4-.04.8-.06,1.2,0,.11-.05.23-.04.34.15.93.03,1.9.29,2.81.09.3.16.61.22.91.18.91.51,1.73,1.09,2.41.23.26.39.6.59.89.06.08.13.15.33.37Z"/>
  <path class="cls-1" d="M242.72,16.48c-1.59.36-2.94.17-4.24-.49-1.17-.59-2.36-1.16-3.47-1.9-.17-.11-.36-.19-.55-.3-.1.06-.2.09-.27.16-.51.51-1.01,1.03-1.53,1.53-.91.88-1.94,1.53-3.11,1.85-.63.17-1.25,0-1.87-.13-1.03-.2-1.95-.74-2.86-1.29-.55-.33-1.1-.69-1.68-1.05-.09.14-.17.25-.23.37-.3.6-.75.98-1.29,1.27-.98.52-2,.73-3.08.69-.59-.02-1.15-.18-1.64-.57-.66-.53-1.36-.97-1.95-1.61-.32-.34-.56-.73-.71-1.2-.24-.72-.52-1.43-.62-2.21-.02-.14-.07-.27-.11-.44-.15,0-.3-.02-.44.02-1.79.45-3.59.46-5.4.29-.55-.05-1.11-.04-1.65-.12-.77-.11-1.54-.25-2.3-.44-1.14-.28-2.29-.37-3.44-.49-.9-.1-1.8-.2-2.71-.23-.75-.02-1.51-.09-2.26.09-.19.05-.4.03-.6.04-1.44.06-2.86.26-4.24.69-.8.25-1.57.61-2.34.95-.7.31-1.39.65-2.09.98-.04.02-.1,0-.21,0,.11-.12.19-.21.27-.28,2.02-1.74,4.34-2.74,6.75-3.49.22-.07.44-.12.67-.13,1.58-.09,3.17-.19,4.75-.24.5-.02,1,.1,1.5.17,1.57.2,3.15.39,4.72.62,1.52.22,3.04.48,4.56.71,1.13.17,2.25.2,3.37-.12.58-.16,1.17-.35,1.82-.28.06.19.14.36.17.55.08.45.1.91.19,1.36.2,1,.57,1.9,1.31,2.55.7.62,1.45,1.13,2.29,1.48.44.18.87.24,1.33.19.56-.06,1.08-.27,1.6-.5.64-.28.99-.85,1.05-1.64.02-.23.03-.45.05-.72.45-.03.8.17,1.13.42.97.74,2.03,1.27,3.07,1.84,1.15.62,2.36.77,3.61.5.3-.07.58-.18.83-.38.71-.55,1.41-1.1,2-1.82.41-.51.88-.92,1.39-1.33.45.27.87.52,1.29.76,1.73,1.01,3.53,1.79,5.38,2.47.56.21,1.11.47,1.81.84Z"/>
  <path class="cls-1" d="M58.71,17.18c0,.54-.13.91-.39,1.25-.36.45-.61.99-.73,1.59-.12.63-.45,1.08-.89,1.44-.94.76-1.94,1.3-3.13,1.32-.63.01-1.25.11-1.88.15-.94.06-1.85-.05-2.72-.53-.84-.46-1.67-.95-2.33-1.72-.07-.08-.15-.15-.23-.23-.24-.24-.49-.26-.76-.06-.23.17-.49.3-.7.51-.51.52-1.11.87-1.71,1.24-.57.36-1.14.73-1.7,1.11-.35.24-.69.4-1.13.3-.44-.1-.9-.06-1.35-.06-.98-.02-1.96-.02-2.94-.04-.14,0-.27-.06-.42-.1.24-.6.35-.76.8-1.16.5-.04.95-.07,1.4-.11.48-.03.95-.06,1.43.03.76.13,1.49-.01,2.16-.51.59-.44,1.21-.81,1.82-1.22,1.04-.7,2.04-1.46,2.84-2.52.01-.02.04-.02.07-.03.26.11.38.37.49.62.36.81,1.02,1.33,1.52,2.01.09.13.24.22.38.27.57.21,1.12.49,1.74.53.48.02.95.1,1.42.15.07,0,.15.02.23,0,.57-.07,1.15-.12,1.72-.24.47-.1.92-.28,1.37-.47.28-.12.57-.27.78-.51.62-.72,1.13-1.53,1.27-2.58.05-.37.1-.74.16-1.1.04-.22.1-.44.15-.68.57-.07,1.1-.21,1.65-.22.99-.01,1.87-.36,2.62-1.12.34-.34.71-.65,1.06-.96.94-.83,1.6-1.89,1.97-3.18.1-.36.19-.71.3-1.06.12-.38.06-.72-.12-1.07-.6-1.19-1.2-2.38-1.81-3.62.1-.03.21-.1.32-.11.35-.02.7-.02,1.06-.04.23-.01.39.1.49.32.48,1.04,1.06,2.02,1.34,3.17.11.43.13.84.06,1.27-.12.73-.24,1.47-.35,2.2-.05.35-.18.65-.4.9-.2.22-.36.49-.58.68-.83.71-1.48,1.63-2.2,2.46-.27.31-.56.58-.91.75-.53.26-1.06.53-1.6.76-.25.1-.54.11-.81.15-.25.03-.49.04-.82.07Z"/>
  <path class="cls-1" d="M11.5,16.78c-.46-.11-.92-.24-1.39-.33-.34-.07-.7-.08-1.04-.11-.28-.02-.49.13-.62.4-.32.65-.63,1.31-.92,1.97-.06.12-.06.28-.07.42-.06.89-.11,1.77-.18,2.66-.03.35.08.58.32.8.72.63,1.4,1.3,2.05,2.03.31.35.7.64,1.16.76.23.06.44.07.65-.08.54-.4,1.17-.51,1.76-.74.48-.19.99-.15,1.49-.06.32.06.65.1.97.15.21.04.38-.04.54-.21.79-.82,1.38-1.82,2-2.79.32-.5.39-1.11.4-1.72,0-.13-.03-.28-.08-.41-.17-.45-.35-.89-.53-1.33-.04-.1-.1-.21-.17-.28-.81-.83-1.4-1.88-2.05-2.86-.03-.04-.08-.07-.16-.15-.22.06-.4.27-.61.41-.24.16-.47.33-.7.5-.21.16-.41.32-.63.49-.32-.05-.52-.34-.76-.53-.13-.1-.13-.33-.02-.46.05-.06.11-.11.17-.16.74-.64,1.49-1.27,2.23-1.91.67-.59.9-.51,1.48.14.05.06.1.13.15.2,1.01,1.64,2.14,3.2,2.81,5.09.06.16.17.29.23.44.06.15.13.32.14.48.03.63.03,1.26.05,1.92-.09.12-.19.24-.28.37-.81,1.1-1.61,2.21-2.42,3.3-.21.28-.45.53-.7.77-.37.35-.78.47-1.26.21-.2-.11-.43-.15-.66-.16-.43-.03-.86-.07-1.28-.03-.45.05-.88.22-1.29.45-.43.24-.87.43-1.31.66-.24.12-.43.05-.63-.11-1.41-1.1-2.83-2.2-4.24-3.3-.06-.05-.11-.12-.19-.22,0-.2-.02-.42-.01-.65.01-.66.01-1.32.06-1.98.04-.54.1-1.08.2-1.61.15-.75.35-1.5.52-2.25.08-.37.24-.69.47-.97.96-1.18.74-1.23,2.36-1.36.71-.06,1.32.26,1.94.59.2.11.27.32.29.57.02.31-.02.47-.23.98Z"/>
  <path class="cls-1" d="M22.71,53.58c-.18.36-.34.68-.52,1.03-.2-.14-.37-.26-.54-.36-.43-.24-.86-.48-1.29-.71-.26-.14-.54-.15-.79.05-.61.5-1.26.94-1.76,1.61-.24.32-.41.64-.47,1.05-.07.51-.16,1.02-.26,1.52-.05.24-.04.45.05.67.05.13.1.27.15.39.49,1.07.85,2.2,1.22,3.33.36,1.1.92,2.03,1.71,2.78.32.3.65.41,1.05.24.78-.33,1.56-.64,2.33-.99.34-.16.67-.23,1.02-.14.56.14,1.13.28,1.75.43,0,0,.08-.02.15-.06q1.19-.66,1.88-1.98c.24-.47.48-.94.74-1.4.37-.63.58-1.34.7-2.07.08-.5-.02-1.03,0-1.54.01-.37-.11-.65-.27-.96-.41-.8-.96-1.47-1.53-2.12-.28-.31-.62-.37-.98-.32-.32.04-.64.13-.96.22-.41.12-.82.27-1.24.39-.14.04-.29.03-.43.05,0-.07-.02-.1-.01-.13.33-1.29.33-1.29,1.47-1.6.61-.17,1.23-.31,1.84-.46.49-.12.91.1,1.21.51.6.84,1.15,1.73,1.74,2.59.77,1.13.83,2.42.71,3.76-.02.16-.07.34-.15.48-.57,1.02-.98,2.13-1.44,3.22-.22.52-.48,1-.89,1.37-.29.26-.55.59-.81.89-.36.41-.81.67-1.25.94-.19.12-.38.15-.58.08-.24-.09-.48-.17-.71-.28-.44-.2-.88-.42-1.33-.61-.34-.15-.68-.15-1.01.08-.77.53-1.64.68-2.52.81-.3.05-.55-.05-.77-.25-.45-.41-.91-.82-1.33-1.26-.22-.23-.41-.51-.54-.81-.66-1.58-1.29-3.18-1.95-4.76-.23-.55-.27-1.09-.16-1.67.18-.92.31-1.87.84-2.64.23-.34.45-.68.71-.99.38-.46.78-.9,1.18-1.33.18-.19.39-.36.6-.51.34-.23.7-.28,1.08-.07.29.16.61.27.92.39.54.21.96.6,1.43,1.14Z"/>
  <path class="cls-1" d="M4.12,147.75l-1.12.03c-.18-.31-.12-.63-.13-.94-.07-2.9-.12-5.8-.19-8.7-.01-.57,0-1.15-.04-1.72-.11-1.25.12-2.46.39-3.65.19-.83.37-1.67.59-2.49.23-.85.49-1.69.75-2.53.26-.85.34-1.73.44-2.61.03-.24-.04-.51-.11-.75-.61-2.19-1.36-4.32-2.2-6.41-.16-.4-.27-.79-.27-1.23,0-.8-.03-1.6-.04-2.39.21-.04.25.11.31.23.59,1.24,1.28,2.41,2.01,3.54.24.37.39.79.51,1.24.28,1.04.6,2.07.91,3.1.15.52.32,1.03.46,1.55.06.22.08.45.09.68.02.6.02,1.2.02,1.81,0,.2-.02.4-.06.6-.24,1.17-.43,2.36-.81,3.49-.36,1.08-.52,2.21-.77,3.32-.04.19-.06.4-.13.58-.38,1.03-.44,2.11-.44,3.2,0,1.06,0,2.13-.07,3.18-.14,2.1-.02,4.19-.06,6.28,0,.17-.02.34-.04.59Z"/>
  <path class="cls-1" d="M41.22,51.95c-.07.19-.12.29-.14.4-.29,1.43-.87,2.75-1.27,4.13-.16.53-.43.96-.78,1.35-.41.46-.77.99-1.15,1.47-.29.36-.57.73-.89,1.05-.22.22-.49.41-.76.54-.47.22-.92.47-1.32.81-.3.25-.61.34-.99.3-.47-.06-.95-.01-1.43-.02-.1,0-.19-.04-.31-.06-.01-.37.16-.61.34-.84.16-.22.42-.21.63-.19.63.06,1.15-.19,1.69-.56,1.38-.95,1.11-.51,2.29-2.16.35-.49.76-.92,1.16-1.35.29-.31.47-.66.49-1.12.04-1.45.57-2.79.83-4.18.05-.24.18-.38.4-.45,1.09-.34,2.19-.65,3.34-.54.1,0,.2.01.3.02.53.02.96-.18,1.3-.68.39-.56.82-1.09,1.25-1.61.26-.32.36-.69.34-1.1-.03-.8.03-1.61-.14-2.4-.03-.14,0-.29-.04-.43-.17-.61.1-.98.52-1.28.3-.21.65-.38.85-.68.18-.27.19-.7.28-1.06.05-.19.13-.38.17-.57.09-.53.12-1.03-.11-1.58-.32-.77-.5-1.61-.68-2.49.24-.22.47-.44.71-.64.74-.61,1.46-1.21,2.01-2.06.15-.23.35-.42.54-.6.46-.41.64-.93.55-1.59-.04-.34-.06-.69-.08-1.03,0-.11-.03-.23-.03-.34-.01-.42.17-.6.51-.5.24.08.47.19.74.3.02.17.05.33.06.5.02.75.03,1.49.06,2.24.02.34-.07.62-.26.86-.17.21-.34.42-.52.62-.21.24-.45.46-.66.71-.45.55-.96,1.02-1.49,1.44-.47.36-.59.83-.45,1.42.1.44.24.88.34,1.32.05.19.1.4.07.58-.15.96-.32,1.91-.48,2.87-.07.42-.24.76-.59.93-.72.35-1,.94-.94,1.84.05.68-.03,1.37-.02,2.06,0,.43-.11.78-.39,1.07-.15.15-.3.31-.41.49-.49.77-1.05,1.46-1.64,2.13-.29.33-.61.49-.99.52-.43.03-.85.05-1.28.07-.5.02-1,.05-1.54.07Z"/>
  <path class="cls-1" d="M63.66,19.61c.54-.08.99-.16,1.43-.2.26-.02.47-.1.67-.32.71-.81,1.5-1.52,2.34-2.16.04-.03.08-.06.13-.1.86-.7.9-.77,1.07-1.94.14-.96.27-1.92.39-2.89.02-.16,0-.34-.06-.49-.15-.39-.34-.77-.54-1.2.13-.44.39-.86.59-1.39.43.56.73,1.12,1.02,1.68.06.11.06.28.06.42,0,1.32-.01,2.64.02,3.96.02.84-.36,1.4-.87,1.9-.51.51-1.05.98-1.56,1.49-.42.41-.84.82-1.23,1.26-.34.38-.69.64-1.18.65-.32,0-.64.1-.99.16-.28,1.33-.95,2.42-1.47,3.58-.41.91-1.04,1.6-1.75,2.21-.44.38-.84.82-1.26,1.24-.6.62-1.28,1.1-2.01,1.51-.37.21-.75.32-1.16.31-1.58-.03-3.17-.04-4.75-.08-.42-.01-.85-.1-1.27-.16-.4-.06-.79-.12-1.28-.2-.15-.34-.34-.76-.55-1.23.57-.36,1.08-.74,1.77-.52.7.23,1.42.38,2.13.57.76.21,1.52.3,2.31.19.8-.12,1.6-.15,2.44-.23,1.06-1.37,2.47-2.26,3.84-3.17.43-1.69,1.23-3.17,1.73-4.86Z"/>
  <path class="cls-1" d="M224.64,140.95c-.33-.33-.38-.84-.59-1.25-.21-.42-.39-.87-.58-1.3-.19-.43-.39-.86-.6-1.32.1-.23.19-.46.3-.7.54.28.62.96,1.02,1.39.22-.3.25-.61.32-.9.29-1.25.68-2.46,1.26-3.58.4-.77.87-1.47,1.46-2.07.15-.15.29-.32.41-.5.37-.56.83-1.01,1.32-1.4.8-.64,1.65-1.21,2.48-1.8.12-.09.27-.12.47-.21,0,.66-.31,1.14-.41,1.68-.1.56-.24,1.11-.37,1.66-.12.53-.26,1.05-.39,1.57-.14.55-.29,1.1-.43,1.65-.13.55-.25,1.1-.37,1.62.18.18.33.13.46.05.31-.19.63-.37.92-.6.79-.63,1.69-1.01,2.57-1.43.12-.06.27-.01.48-.02-.1.22-.16.37-.24.52-.24.5-.49.99-.73,1.5-.2.43-.39.87-.58,1.3-.35.78-.5,1.61-.42,2.55.13-.05.25-.08.35-.13.09-.04.18-.11.26-.17.78-.64,1.67-.9,2.61-.98.22-.02.45-.09.67-.11.17-.02.34,0,.48,0,.1.18,0,.25-.06.33-.02.02-.04.04-.06.05-1.05.52-1.69,1.5-2.21,2.61-.02.05-.05.1-.07.15q-.44.89-1.47.72c.04-.48.28-.84.51-1.21.21-.34.47-.63.72-1.17-.98.46-1.74,1.01-2.58,1.49-.24-.6-.16-1.22-.21-1.83-.05-.63.16-1.19.33-1.75.19-.58.43-1.13.68-1.78-1.23.43-2.24,1.23-3.3,1.91-.2-.71-.21-1.16-.13-1.8.24-1.8.7-3.52,1.28-5.2.09-.25.25-.5.16-.86-.17.09-.33.16-.47.26-1.08.77-2.02,1.7-2.65,2.99-.33.67-.68,1.34-1,2.02-.8,1.69-1.26,3.49-1.39,5.4-.02.22.04.47-.2.65Z"/>
  <path class="cls-1" d="M245.86,59.87c.27-.32.58-.5.82-.74.25.1.22.3.25.45.31,1.77.62,3.54.92,5.32.02.14.04.28.05.43.09,1.66.22,3.32.26,4.98.03,1.4-.02,2.81-.06,4.21,0,.28-.08.56-.15.83-.2.77-.43,1.53-.64,2.29-.07.26.03.42.23.56.34-.44.66-.87.97-1.28.21.04.18.21.19.34.02.34,0,.69.03,1.03.04.49-.08.9-.33,1.28-.16.25-.31.53-.48.77-.22.31-.45.32-.7.02-.55-.63-1.1-1.26-1.62-1.92-.79-1-1.57-2.01-2.33-3.05-.43-.59-.8-1.25-1.22-1.86-.23-.34-.3-.71-.31-1.12,0-.28-.04-.55,0-.84.4.03.45.51.79.61.15-.15.08-.41.15-.6.07-.21.12-.44.18-.66.06-.22.11-.43.17-.66.24-.01.31.19.41.33.13.17.25.36.32.57.05.18.04.4.03.6-.03.4-.08.8-.11,1.2-.05.7.13,1.3.59,1.78.18.19.34.42.53.62.38.41.77.81,1.19,1.25.08-.2.18-.34.2-.49.36-2.02.7-4.05.71-6.13,0-.17,0-.34,0-.52-.1-1.43-.2-2.86-.32-4.29-.03-.4-.11-.79-.17-1.19-.18-1.27-.35-2.55-.53-3.82-.01-.08,0-.17,0-.31Z"/>
  <path class="cls-1" d="M237.29,102.91c-.19-.26-.31-.44-.44-.61-.62-.77-1.54-.96-2.33-.44-.83.54-1.36,1.34-1.46,2.46,0,.11-.03.22-.04.31-.07.03-.12.08-.15.07-.52-.27-1.07-.3-1.62-.26-.25.02-.5.01-.76,0-.7-.04-1.28.23-1.77.78-.29.32-.58.63-.87.95-.33.38-.54.82-.56,1.37,0,.34,0,.69-.04,1.03-.12,1.22.83,2.2,1.69,2.39.23.05.57-.09.66.26.06.21-.05.49-.1.74-.2.96-.27,1.94-.15,2.9.06.46.28.92.51,1.32.21.37.6.53.99.51.7-.03,1.4-.1,2.1-.18.38-.04.71-.26,1.04-.49.13-.09.25-.2.44-.04-.14.45-.37.86-.62,1.25-.07.11-.18.21-.3.25-.4.15-.81.34-1.23.38-.62.06-1.26.03-1.88,0-.19,0-.39-.1-.58-.18-.23-.11-.45-.27-.68-.37-.39-.16-.62-.47-.75-.9-.03-.11-.05-.22-.09-.33-.37-.96-.46-1.92-.18-2.94.06-.24.01-.51.03-.77.02-.25.07-.5.12-.8-.2-.11-.4-.22-.59-.33-.2-.11-.41-.21-.6-.34-.43-.3-.64-.74-.77-1.31-.22-.99-.05-1.93.14-2.88.04-.19.13-.38.22-.55.23-.44.47-.88.72-1.31.08-.14.18-.29.3-.38.65-.43,1.29-.89,2.09-.87.5.01,1.01-.02,1.51-.04.17,0,.35-.03.55-.05.16-.56.33-1.09.48-1.63.16-.59.51-.98.99-1.22.02-.01.05-.03.07-.03.79-.14,1.58-.36,2.38-.14.34.1.68.22,1.01.34.36.13.58.42.74.81.12.28.16.53,0,.81-.07.12-.13.24-.23.45Z"/>
  <path class="cls-1" d="M224.09.54c.65-.2,1.33-.22,1.88-.02.91.34,1.84.63,2.7,1.09.85.45,1.75.71,2.59,1.17,2.27,1.24,4.64,2.21,6.93,3.38.85.44,1.69.89,2.55,1.29.84.38,1.7.7,2.55,1.05.07.03.14.07.21.1,1.04.44,2.07.87,3.11,1.31.21.09.41.2.65.31.01.36.03.7.04,1.04,0,.16-.02.33-.04.55-.15-.05-.24-.06-.32-.11-1.22-.75-2.55-1.22-3.82-1.84-1.43-.7-2.9-1.29-4.36-1.9-.52-.22-1.05-.4-1.56-.63-2.14-.93-4.24-1.97-6.3-3.11-2.01-1.11-4.06-2.14-6.09-3.22-.24-.13-.51-.2-.71-.46Z"/>
  <path class="cls-1" d="M54.09,39.06c-.18.45-.34.81-.6,1.12-.44-.1-.88-.19-1.35-.29-.56,1.38-.72,2.82-.95,4.28.24.43.64.71.94,1.09.3.38.62.74.94,1.12.45-.09.87-.15,1.29-.25.43-.1.85-.12,1.26.05.14.06.29.09.44.13.31.08.57.04.83-.22.65-.67,1.34-1.29,2.01-1.94.09-.09.16-.22.25-.35-.1-.62-.19-1.23-.29-1.85-.01-.08-.03-.17-.05-.25-.16-.48-1.09-2.14-1.49-2.62-.5.1-.95.46-1.5.62-.08-.2-.16-.4-.26-.64.57-.62,1.23-1.02,1.86-1.51.47.32.82.78,1.16,1.23.78,1.03,1.37,2.19,1.68,3.52.16.7.01,1.36-.05,2.04-.01.12-.12.25-.21.34-.6.66-1.19,1.31-1.8,1.96-.11.11-.25.19-.38.27-.18.1-.36.19-.55.29-1.12.56-.78.66-1.91.28-.27-.09-.59-.02-.89.02-.4.05-.79.15-1.19.22-.26.04-.48-.06-.7-.24-.88-.73-1.61-1.64-2.39-2.5-.15-.17-.24-.37-.19-.62.36-1.88.69-3.76,1.2-5.59.01-.05.06-.09.11-.18.92-.13,1.8.25,2.78.48Z"/>
  <path class="cls-1" d="M26.7,15.38c-.22-.06-.38-.12-.56-.16-.4-.09-.76-.27-1.09-.56-.21-.19-.47-.31-.74-.49-.15.21-.29.37-.4.55-.57.93-.87,1.36-2.25,2.13-.28-.3-.35-.73-.55-1.13.11-.16.21-.32.31-.48.46-.68.94-1.34,1.38-2.04.3-.49.19-1.05.04-1.57-.07-.24-.19-.47-.29-.7-.23-.57-.29-1.15-.06-1.75.09-.24.14-.49.2-.74.22-.95.77-1.6,1.48-2.08.32-.22.66-.42,1-.61.39-.22.8-.3,1.3-.23-.06.16-.08.3-.16.39-.3.34-.61.67-.93,1-.39.4-.8.78-1.2,1.18-.48.49-.61,1.1-.44,1.8.1.41.21.83.29,1.25.17.81.66,1.32,1.23,1.78.1.08.24.1.34.19.62.58,1.36.68,2.12.72.12,0,.24.04.34.06.2.29.15.59.14.87-.05.95.24,1.74.77,2.44.15.19.26.42.38.64.2.33.39.66.62,1.04-.32.34-.66.71-1,1.06-.56-.13-.92-.55-1.24-.99-.48-.67-.85-1.41-.9-2.32-.02-.4-.1-.79-.16-1.26Z"/>
  <path class="cls-1" d="M38.23,28.72c.68-.6,1.34-1.18,1.99-1.76.29-.25.3-.25.71-.25.09.51.01.93-.36,1.28-.46.44-.91.9-1.36,1.36.02,1.32.16,2.59.38,3.86.04.25.16.42.34.54.24.16.48.3.73.45.31-.19.6-.37.88-.54.59-.37,1.2-.36,1.82-.09.07.03.14.06.21.1.36.2.67.15.97-.16.41-.42.87-.77,1.17-1.2.24-1.05.09-2.02,0-3-.66-.43-1.31-.86-2-1.31-.49.1-.95.41-1.46.56-.04-.71.1-.99.56-1.21.58-.27,1.16-.53,1.77-.81.67.53,1.37.98,1.98,1.59.34.35.54.75.54,1.27,0,1,0,2,0,3.01,0,.37-.12.62-.4.86-.6.51-1.17,1.08-1.74,1.65-.4.4-.83.52-1.32.29-.26-.12-.52-.2-.78-.33-.25-.13-.48-.13-.71.05-.17.13-.36.21-.51.36-.26.25-.54.28-.85.16-.28-.11-.57-.23-.84-.35-.19-.09-.36-.2-.55-.29-.8-.41-.82-.34-.86-1.28,0-.06,0-.12-.02-.17-.3-1.05-.34-2.14-.39-3.23-.02-.46-.03-.91.1-1.4Z"/>
  <path class="cls-1" d="M15.9,8.92c-.03-.99-.17-1.92.08-2.91-1.04.29-1.8.89-2.61,1.46-.02.19-.04.39-.06.59-.16,1.42-.47,2.81-.79,4.19-.02.11-.09.2-.13.31-.21.02-.41.06-.61.06-.29,0-.41-.15-.37-.48.09-.71.2-1.42.27-2.13.08-.71.15-1.42.18-2.14.02-.35.12-.6.36-.79.29-.23.57-.47.86-.7.53-.41,1.11-.63,1.77-.61.75.03,1.51-.03,2.26-.04.1,0,.2.03.3.04.03.09.09.17.09.24.01,1,0,2.01.03,3.01.01.38-.08.67-.31.92-.16.18-.32.38-.51.51-.7.47-1.26,1.13-1.84,1.76-.11.12-.23.23-.33.35-.22.27-.47.41-.81.3-.16-.05-.34-.03-.57-.04.05-.18.07-.32.12-.43.34-.68.82-1.23,1.27-1.8.46-.57.91-1.14,1.35-1.69Z"/>
  <path class="cls-1" d="M231.29,110.72c-.08-.98.31-1.89.75-2.76.34-.65.88-.99,1.57-1.03.56-.03,1.1.09,1.63.28.12.04.24.11.32.21.28.33.55.67.79,1.03.54.82.54,2.05-.03,2.9-.49.73-1.07,1.37-1.79,1.82-.34.21-.7.34-1.08.29-.22-.03-.46-.08-.64-.22-.39-.31-.75-.67-1.1-1.04-.36-.38-.45-.88-.43-1.49ZM232.92,111.22c.54.51,1.17.5,1.8.38.45-.09.66-.44.68-.99,0-.17-.02-.35,0-.52.05-.57-.17-1-.49-1.39-.58-.71-1.55-.51-1.83.4-.21.68-.27,1.39-.15,2.12Z"/>
  <path class="cls-1" d="M229.71,95.26c0-.11,0-.2.03-.27.39-.78.84-1.5,1.42-2.1.17-.17.35-.33.5-.52.58-.73,1.33-1.11,2.14-1.36.17-.05.34-.09.52-.1.83-.06,1.66-.11,2.48-.16.1,0,.2.02.32.04.19.3.36.6.38.99-.29.15-.57.09-.84.09-.53.01-1.06.03-1.58.04-.53.01-1.04.17-1.55.35-.71.25-1.28.75-1.68,1.46.1.21.24.15.35.13.79-.14,1.59-.3,2.38-.43.56-.09,1.1-.02,1.61.29.22.13.47.21.7.32.28.14.56.27.81.45.67.47.78.86.57,1.82-.15.1-.22-.06-.32-.12-.67-.45-1.34-.9-2.02-1.35-.29-.19-.6-.29-.94-.29-.75,0-1.51,0-2.26.01-.22,0-.44.09-.66.15-.78.21-1.54.48-2.37.56Z"/>
  <path class="cls-1" d="M247.71,33.07c.06.49.09.91.02,1.34-.86-.04-2.83-.97-3.92-1.83-.19-1.18-.24-5.77-.08-6.98.28-.19.61-.13.93-.08.3.05.59.13.88.21.66.19,1.31.39,1.99.58.13.42.14.83.03,1.27-.91-.13-1.76-.53-2.7-.57-.01.62-.03,1.18-.04,1.75-.01.72,0,1.43-.04,2.15-.03.56.19.83.63,1.02.63.27,1.25.59,1.88.9.14.07.27.15.45.24Z"/>
  <path class="cls-1" d="M15.42,61.28c.19.51.34.9.5,1.32-.13.12-.23.25-.35.32-.29.17-.59.32-.89.47-.41.21-.86.37-1.23.65-.76.57-1.57.51-2.4.37-.35-.06-.69-.14-1.03-.22-.05,0-.1-.02-.14-.05-.58-.5-1.3-.57-1.97-.8-.29-.1-.5-.24-.64-.53-.08-.18-.17-.35-.24-.54-.22-.57-.44-1.15-.66-1.73.04-.08.07-.16.13-.21.17-.16.36-.31.58-.49.1.16.2.28.27.42.11.23.22.45.29.7.32,1.11.96,1.41,1.91,1.68.78.22,1.56.44,2.38.4.15,0,.31.02.44-.04.58-.27,1.16-.54,1.72-.85.42-.23.82-.53,1.33-.86Z"/>
  <path class="cls-1" d="M245.95,8.51c-.25-.1-.35-.13-.43-.18-.9-.57-1.79-1.15-2.69-1.71-.25-.16-.43-.37-.58-.65-.94-1.82-1.89-3.64-2.84-5.46-.05-.09-.08-.2-.14-.35.56-.23,1.1-.12,1.63-.13,1.65,2.8,3.11,5.7,5.05,8.49Z"/>
  <path class="cls-1" d="M22.87,50.5c.04-.4.21-.68.4-.95.4-.59.81-1.18,1.32-1.64.53-.95,1.34-.76,2.1-.61.49.09.97.31,1.43.52.44.2.87.44,1.3.68.13.07.24.19.36.29-.14.33-.36.51-.59.69-.54.42-1.06.87-1.6,1.29-.16.12-.35.24-.54.26-.4.05-.8.08-1.2.04-.78-.06-1.55-.17-2.32-.26-.23-.03-.45-.08-.66-.31ZM24.49,49.95c1.84.36,2.4.27,3.74-1.13-.03-.04-.06-.11-.1-.13-.57-.21-1.15-.41-1.72-.61-.21-.07-.39,0-.57.13-.55.37-.97.89-1.31,1.5-.03.06-.03.16-.04.23Z"/>
  <path class="cls-1" d="M2.73,48.48c-.05-.98.05-1.74.43-2.46.65-1.22,1.24-2.5,1.9-3.71.49-.89,1.08-1.73,1.62-2.59.4-.63.91-1.05,1.59-1.2.22-.05.42-.14.75-.21-.1.22-.15.35-.21.45-.89,1.31-1.79,2.62-2.69,3.93-.11.16-.23.31-.31.49-.42.95-.98,1.79-1.55,2.63-.36.54-.63,1.17-.94,1.76-.15.28-.26.6-.6.91Z"/>
  <path class="cls-1" d="M.06,11.49l-.06-2.8c.68-.76,1.37-1.55,2.07-2.32.12-.13.3-.24.45-.25.62-.05,1.24-.07,1.9-.05-.03.14-.02.23-.06.28-1.31,1.69-2.56,3.43-4.04,4.95-.05.05-.12.08-.28.19Z"/>
  <path class="cls-1" d="M58.9,31.66c-.05.55-.09.94-.12,1.34-.04.49-.07.97-.1,1.46-.02.2-.02.4-.05.6-.03.24-.13.43-.34.53-.62.32-1.23.64-1.85.95-.01,0-.04-.03-.1-.06.06-.12.11-.24.19-.34.21-.28.41-.59.66-.83.62-.6.68-1.35.51-2.24-.46.09-.9.18-1.34.26-.22.04-.36.18-.46.4-.16.33-.31.66-.48.97-.35.62-.71,1.24-1.17,1.82,0-.12,0-.24.02-.35.26-.99.53-1.97.8-2.95.09-.34.25-.64.55-.78,1.02-.49,2.1-.69,3.29-.79Z"/>
  <path class="cls-1" d="M228.4,142.01l-.91.02c-.36-.53-.36-1.14-.39-1.73-.06-1.54-.21-3.09.48-4.52.18-.03.22.12.27.24.13.34.24.69.35,1.04.1.33.12.66.06,1.01-.12.76-.22,1.53-.16,2.31,0,.1.03.2.05.34.85-1.03,1.01-1.17,2.05-1.75.13.1.03.2-.02.28-.13.21-.27.41-.42.6-.45.58-.87,1.19-1.18,1.88-.05.1-.12.18-.18.27Z"/>
  <path class="cls-1" d="M.75,44.1c-.01-.15-.03-.31-.04-.46-.01-.46-.03-.91-.02-1.37,0-.13.07-.27.13-.39.7-1.22,1.4-2.43,2.1-3.64.05-.09.13-.16.21-.25.26.14.5.27.79.42-.04.18-.05.34-.11.48-.77,1.8-1.65,3.52-2.78,5.06-.05.06-.11.11-.17.16-.01.01-.05,0-.12-.02Z"/>
  <path class="cls-1" d="M41.87,25.59c.04-.1.06-.21.11-.3.43-.78.96-1.46,1.68-1.92.2-.13.41-.21.64-.19.55.07,1.1.13,1.64.19.02,0,.05.01.07.02.25.09.32.4.11.6-.38.36-.78.71-1.17,1.07-.18.16-.37.3-.53.47-.32.34-.71.5-1.14.57-.17.02-.35,0-.53.02-.39.04-.67-.14-.89-.54ZM44.3,24.24c-.62.05-.91.28-1.15.91.14-.02.29,0,.37-.07.26-.25.5-.54.78-.85Z"/>
  <path class="cls-1" d="M238.54,141.78c-.61.02-1.03.02-1.45.04-.22,0-.39-.1-.55-.25-.35-.33-.7-.65-1.04-1-.75-.77-1.49-1.54-2.21-2.33-.25-.27-.44-.62-.66-.93,0-.01,0-.05.02-.14,2.15,1.13,4.22,2.32,5.89,4.6Z"/>
  <path class="cls-1" d="M219.48.64c-.04.34-.27.46-.45.58-.7.46-1.46.66-2.25.46-.83-.21-1.65-.5-2.48-.75-.04-.01-.08-.06-.17-.13.1-.05.18-.12.25-.12,1.61-.05,3.22-.09,4.83-.13.09,0,.18.05.27.08Z"/>
  <path class="cls-1" d="M222.12,140.91c.09-.33.13-.55.2-.75.35-.99.49-2.03.53-3.09,0-.14,0-.3.04-.42.04-.11.15-.18.28-.31.19.45.37.82.52,1.21.06.15.09.34.08.5-.09.96-.23,1.91-.57,2.84l-1.08.03Z"/>
  <path class="cls-1" d="M2.16,33.95c.28.13.61.17.87.47-.13.5-.39.92-.73,1.25-.48.46-.99.88-1.49,1.31-.03.03-.09.02-.14.03-.11-.41-.17-1-.1-1.22.04-.13.11-.26.18-.37.15-.19.3-.39.47-.56.3-.3.6-.59.94-.91Z"/>
</svg>